<?xml version="1.0" encoding="utf-8"?>
<svg version="1.1" xmlns:xlink="http://www.w3.org/1999/xlink" width="501px" height="621px" xmlns="http://www.w3.org/2000/svg">
  <defs>
    <pattern id="BGPattern" patternUnits="userSpaceOnUse" alignment="0 0" imageRepeat="None" />
    <mask fill="white" id="Clip50">
      <path d="M 0 621  L 0 0  L 501 0  L 501 621  L 0 621  Z " fill-rule="evenodd" />
    </mask>
    <mask fill="white" id="Clip51">
      <path d="M 211 302  L 292 302  L 292 321  L 211 321  Z M 0 0  L 501 0  L 501 621  L 0 621  Z " fill-rule="evenodd" />
    </mask>
  </defs>
  <g transform="matrix(1 0 0 1 -744 -319 )">
    <path d="M 0 621  L 0 0  L 501 0  L 501 621  L 0 621  Z " fill-rule="nonzero" fill="rgba(242, 242, 242, 1)" stroke="none" transform="matrix(1 0 0 1 744 319 )" class="fill" />
    <path d="M 0 621  L 0 0  L 501 0  L 501 621  L 0 621  Z " stroke-width="2" stroke-dasharray="0" stroke="rgba(121, 121, 121, 1)" fill="none" transform="matrix(1 0 0 1 744 319 )" class="stroke" mask="url(#Clip50)" />
    <path d="M 500.6108527538585 0.4823561673729879  L 0.38914724614149265 620.517643832627  M 0.38914724614149265 0.4823561673729879  L 500.6108527538585 620.517643832627  " stroke-width="1" stroke-dasharray="0" stroke="rgba(121, 121, 121, 1)" fill="none" transform="matrix(1 0 0 1 744 319 )" class="stroke" mask="url(#Clip51)" />
  </g>
</svg>