<?xml version="1.0" encoding="utf-8"?>
<svg version="1.1" xmlns:xlink="http://www.w3.org/1999/xlink" width="27px" height="29px" xmlns="http://www.w3.org/2000/svg">
  <defs>
    <pattern id="BGPattern" patternUnits="userSpaceOnUse" alignment="0 0" imageRepeat="None" />
    <mask fill="white" id="Clip52">
      <path d="M 26.32133152173913 12.824775353016687  C 26.773777173913043 13.259092854086434  27 13.817501069747538  27 14.5  C 27 15.170089858793327  26.773777173913043 15.734702610183994  26.32133152173913 16.193838254172015  L 14.380434782608697 28.31129653401797  C 13.903532608695652 28.77043217800599  13.347146739130435 29  12.711277173913043 29  C 12.087635869565217 29  11.537364130434783 28.77043217800599  11.060461956521738 28.31129653401797  L 9.684782608695652 26.915275994865212  C 9.220108695652174 26.44373127941806  8.987771739130435 25.879118528027384  8.987771739130435 25.221437740693197  C 8.987771739130435 24.56375695335901  9.220108695652174 23.999144201968335  9.684782608695652 23.52759948652118  L 15.059103260869566 18  L 2.146059782608696 18  C 1.5101902173913044 18.073812580231067  0.9935461956521741 17.841142490372274  0.5961277173913043 17.375802310654684  C 0.19870923913043476 16.9104621309371  0 16.34895164741121  0 15.691270860077022  L 0 13.308729139922978  C 0 12.651048352588788  0.19870923913043476 12.089537869062902  0.5961277173913043 11.624197689345316  C 0.9935461956521741 11.158857509627728  1.5101902173913044 10.926187419768935  2.146059782608696 11  L 15.059103260869566 11  L 9.684782608695652 5.453786906290116  C 9.220108695652174 5.007060333761232  8.987771739130435 4.44865211810013  8.987771739130435 3.7785622593068036  C 8.987771739130435 3.1084724005134805  9.220108695652174 2.550064184852375  9.684782608695652 2.103337612323491  L 11.060461956521738 0.7073170731707323  C 11.525135869565219 0.2357723577235753  12.075407608695652 0  12.711277173913043 0  C 13.359375 0  13.915760869565219 0.2357723577235753  14.380434782608697 0.7073170731707323  L 26.32133152173913 12.824775353016687  Z " fill-rule="evenodd" />
    </mask>
  </defs>
  <g transform="matrix(1 0 0 1 -943 -615 )">
    <path d="M 26.32133152173913 12.824775353016687  C 26.773777173913043 13.259092854086434  27 13.817501069747538  27 14.5  C 27 15.170089858793327  26.773777173913043 15.734702610183994  26.32133152173913 16.193838254172015  L 14.380434782608697 28.31129653401797  C 13.903532608695652 28.77043217800599  13.347146739130435 29  12.711277173913043 29  C 12.087635869565217 29  11.537364130434783 28.77043217800599  11.060461956521738 28.31129653401797  L 9.684782608695652 26.915275994865212  C 9.220108695652174 26.44373127941806  8.987771739130435 25.879118528027384  8.987771739130435 25.221437740693197  C 8.987771739130435 24.56375695335901  9.220108695652174 23.999144201968335  9.684782608695652 23.52759948652118  L 15.059103260869566 18  L 2.146059782608696 18  C 1.5101902173913044 18.073812580231067  0.9935461956521741 17.841142490372274  0.5961277173913043 17.375802310654684  C 0.19870923913043476 16.9104621309371  0 16.34895164741121  0 15.691270860077022  L 0 13.308729139922978  C 0 12.651048352588788  0.19870923913043476 12.089537869062902  0.5961277173913043 11.624197689345316  C 0.9935461956521741 11.158857509627728  1.5101902173913044 10.926187419768935  2.146059782608696 11  L 15.059103260869566 11  L 9.684782608695652 5.453786906290116  C 9.220108695652174 5.007060333761232  8.987771739130435 4.44865211810013  8.987771739130435 3.7785622593068036  C 8.987771739130435 3.1084724005134805  9.220108695652174 2.550064184852375  9.684782608695652 2.103337612323491  L 11.060461956521738 0.7073170731707323  C 11.525135869565219 0.2357723577235753  12.075407608695652 0  12.711277173913043 0  C 13.359375 0  13.915760869565219 0.2357723577235753  14.380434782608697 0.7073170731707323  L 26.32133152173913 12.824775353016687  Z " fill-rule="nonzero" fill="rgba(0, 0, 0, 1)" stroke="none" transform="matrix(1 0 0 1 943 615 )" class="fill" />
    <path d="M 26.32133152173913 12.824775353016687  C 26.773777173913043 13.259092854086434  27 13.817501069747538  27 14.5  C 27 15.170089858793327  26.773777173913043 15.734702610183994  26.32133152173913 16.193838254172015  L 14.380434782608697 28.31129653401797  C 13.903532608695652 28.77043217800599  13.347146739130435 29  12.711277173913043 29  C 12.087635869565217 29  11.537364130434783 28.77043217800599  11.060461956521738 28.31129653401797  L 9.684782608695652 26.915275994865212  C 9.220108695652174 26.44373127941806  8.987771739130435 25.879118528027384  8.987771739130435 25.221437740693197  C 8.987771739130435 24.56375695335901  9.220108695652174 23.999144201968335  9.684782608695652 23.52759948652118  L 15.059103260869566 18  L 2.146059782608696 18  C 1.5101902173913044 18.073812580231067  0.9935461956521741 17.841142490372274  0.5961277173913043 17.375802310654684  C 0.19870923913043476 16.9104621309371  0 16.34895164741121  0 15.691270860077022  L 0 13.308729139922978  C 0 12.651048352588788  0.19870923913043476 12.089537869062902  0.5961277173913043 11.624197689345316  C 0.9935461956521741 11.158857509627728  1.5101902173913044 10.926187419768935  2.146059782608696 11  L 15.059103260869566 11  L 9.684782608695652 5.453786906290116  C 9.220108695652174 5.007060333761232  8.987771739130435 4.44865211810013  8.987771739130435 3.7785622593068036  C 8.987771739130435 3.1084724005134805  9.220108695652174 2.550064184852375  9.684782608695652 2.103337612323491  L 11.060461956521738 0.7073170731707323  C 11.525135869565219 0.2357723577235753  12.075407608695652 0  12.711277173913043 0  C 13.359375 0  13.915760869565219 0.2357723577235753  14.380434782608697 0.7073170731707323  L 26.32133152173913 12.824775353016687  Z " stroke-width="0" stroke-dasharray="0" stroke="rgba(255, 255, 255, 0)" fill="none" transform="matrix(1 0 0 1 943 615 )" class="stroke" mask="url(#Clip52)" />
  </g>
</svg>