<?xml version="1.0" encoding="utf-8"?>
<svg version="1.1" xmlns:xlink="http://www.w3.org/1999/xlink" width="27px" height="27px" xmlns="http://www.w3.org/2000/svg">
  <defs>
    <pattern id="BGPattern" patternUnits="userSpaceOnUse" alignment="0 0" imageRepeat="None" />
    <mask fill="white" id="Clip53">
      <path d="M 26.363636363636363 20.18181818181818  C 26.78787878787879 20.606060606060602  27 21.121212121212118  27 21.727272727272727  C 27 22.333333333333336  26.78787878787879 22.848484848484848  26.363636363636363 23.272727272727273  L 23.272727272727273 26.363636363636363  C 22.84848484848485 26.78787878787879  22.333333333333332 27  21.727272727272727 27  C 21.121212121212125 27  20.60606060606061 26.78787878787879  20.181818181818183 26.363636363636363  L 13.5 19.681818181818183  L 6.818181818181818 26.363636363636363  C 6.3939393939393945 26.78787878787879  5.878787878787879 27  5.2727272727272725 27  C 4.666666666666667 27  4.151515151515152 26.78787878787879  3.7272727272727275 26.363636363636363  L 0.6363636363636364 23.272727272727273  C 0.21212121212121232 22.848484848484848  0 22.333333333333336  0 21.727272727272727  C 0 21.121212121212118  0.21212121212121232 20.606060606060602  0.6363636363636364 20.18181818181818  L 7.3181818181818175 13.5  L 0.6363636363636364 6.8181818181818175  C 0.21212121212121232 6.393939393939392  0 5.878787878787879  0 5.2727272727272725  C 0 4.666666666666666  0.21212121212121232 4.151515151515148  0.6363636363636364 3.7272727272727284  L 3.7272727272727275 0.6363636363636365  C 4.151515151515152 0.21212121212121116  4.666666666666667 0  5.2727272727272725 0  C 5.878787878787879 0  6.3939393939393945 0.21212121212121116  6.818181818181818 0.6363636363636365  L 13.5 7.318181818181819  L 20.181818181818183 0.6363636363636365  C 20.60606060606061 0.21212121212121116  21.121212121212125 0  21.727272727272727 0  C 22.333333333333332 0  22.84848484848485 0.21212121212121116  23.272727272727273 0.6363636363636365  L 26.363636363636363 3.7272727272727284  C 26.78787878787879 4.151515151515148  27 4.666666666666666  27 5.2727272727272725  C 27 5.878787878787879  26.78787878787879 6.393939393939392  26.363636363636363 6.8181818181818175  L 19.68181818181818 13.5  L 26.363636363636363 20.18181818181818  Z " fill-rule="evenodd" />
    </mask>
  </defs>
  <g transform="matrix(1 0 0 1 -943 -496 )">
    <path d="M 26.363636363636363 20.18181818181818  C 26.78787878787879 20.606060606060602  27 21.121212121212118  27 21.727272727272727  C 27 22.333333333333336  26.78787878787879 22.848484848484848  26.363636363636363 23.272727272727273  L 23.272727272727273 26.363636363636363  C 22.84848484848485 26.78787878787879  22.333333333333332 27  21.727272727272727 27  C 21.121212121212125 27  20.60606060606061 26.78787878787879  20.181818181818183 26.363636363636363  L 13.5 19.681818181818183  L 6.818181818181818 26.363636363636363  C 6.3939393939393945 26.78787878787879  5.878787878787879 27  5.2727272727272725 27  C 4.666666666666667 27  4.151515151515152 26.78787878787879  3.7272727272727275 26.363636363636363  L 0.6363636363636364 23.272727272727273  C 0.21212121212121232 22.848484848484848  0 22.333333333333336  0 21.727272727272727  C 0 21.121212121212118  0.21212121212121232 20.606060606060602  0.6363636363636364 20.18181818181818  L 7.3181818181818175 13.5  L 0.6363636363636364 6.8181818181818175  C 0.21212121212121232 6.393939393939392  0 5.878787878787879  0 5.2727272727272725  C 0 4.666666666666666  0.21212121212121232 4.151515151515148  0.6363636363636364 3.7272727272727284  L 3.7272727272727275 0.6363636363636365  C 4.151515151515152 0.21212121212121116  4.666666666666667 0  5.2727272727272725 0  C 5.878787878787879 0  6.3939393939393945 0.21212121212121116  6.818181818181818 0.6363636363636365  L 13.5 7.318181818181819  L 20.181818181818183 0.6363636363636365  C 20.60606060606061 0.21212121212121116  21.121212121212125 0  21.727272727272727 0  C 22.333333333333332 0  22.84848484848485 0.21212121212121116  23.272727272727273 0.6363636363636365  L 26.363636363636363 3.7272727272727284  C 26.78787878787879 4.151515151515148  27 4.666666666666666  27 5.2727272727272725  C 27 5.878787878787879  26.78787878787879 6.393939393939392  26.363636363636363 6.8181818181818175  L 19.68181818181818 13.5  L 26.363636363636363 20.18181818181818  Z " fill-rule="nonzero" fill="rgba(0, 0, 0, 1)" stroke="none" transform="matrix(1 0 0 1 943 496 )" class="fill" />
    <path d="M 26.363636363636363 20.18181818181818  C 26.78787878787879 20.606060606060602  27 21.121212121212118  27 21.727272727272727  C 27 22.333333333333336  26.78787878787879 22.848484848484848  26.363636363636363 23.272727272727273  L 23.272727272727273 26.363636363636363  C 22.84848484848485 26.78787878787879  22.333333333333332 27  21.727272727272727 27  C 21.121212121212125 27  20.60606060606061 26.78787878787879  20.181818181818183 26.363636363636363  L 13.5 19.681818181818183  L 6.818181818181818 26.363636363636363  C 6.3939393939393945 26.78787878787879  5.878787878787879 27  5.2727272727272725 27  C 4.666666666666667 27  4.151515151515152 26.78787878787879  3.7272727272727275 26.363636363636363  L 0.6363636363636364 23.272727272727273  C 0.21212121212121232 22.848484848484848  0 22.333333333333336  0 21.727272727272727  C 0 21.121212121212118  0.21212121212121232 20.606060606060602  0.6363636363636364 20.18181818181818  L 7.3181818181818175 13.5  L 0.6363636363636364 6.8181818181818175  C 0.21212121212121232 6.393939393939392  0 5.878787878787879  0 5.2727272727272725  C 0 4.666666666666666  0.21212121212121232 4.151515151515148  0.6363636363636364 3.7272727272727284  L 3.7272727272727275 0.6363636363636365  C 4.151515151515152 0.21212121212121116  4.666666666666667 0  5.2727272727272725 0  C 5.878787878787879 0  6.3939393939393945 0.21212121212121116  6.818181818181818 0.6363636363636365  L 13.5 7.318181818181819  L 20.181818181818183 0.6363636363636365  C 20.60606060606061 0.21212121212121116  21.121212121212125 0  21.727272727272727 0  C 22.333333333333332 0  22.84848484848485 0.21212121212121116  23.272727272727273 0.6363636363636365  L 26.363636363636363 3.7272727272727284  C 26.78787878787879 4.151515151515148  27 4.666666666666666  27 5.2727272727272725  C 27 5.878787878787879  26.78787878787879 6.393939393939392  26.363636363636363 6.8181818181818175  L 19.68181818181818 13.5  L 26.363636363636363 20.18181818181818  Z " stroke-width="0" stroke-dasharray="0" stroke="rgba(255, 255, 255, 0)" fill="none" transform="matrix(1 0 0 1 943 496 )" class="stroke" mask="url(#Clip53)" />
  </g>
</svg>