<?xml version="1.0" encoding="utf-8"?>
<svg version="1.1" xmlns:xlink="http://www.w3.org/1999/xlink" width="1372px" height="1030px" xmlns="http://www.w3.org/2000/svg">
  <defs>
    <pattern id="BGPattern" patternUnits="userSpaceOnUse" alignment="0 0" imageRepeat="None" />
    <mask fill="white" id="Clip7">
      <path d="M 0 1030  L 0 0  L 1372 0  L 1372 1030  L 0 1030  Z " fill-rule="evenodd" />
    </mask>
    <mask fill="white" id="Clip8">
      <path d="M 654 507  L 720 507  L 720 526  L 654 526  Z M 0 0  L 1372 0  L 1372 1030  L 0 1030  Z " fill-rule="evenodd" />
    </mask>
  </defs>
  <g transform="matrix(1 0 0 1 3 3 )">
    <path d="M 0 1030  L 0 0  L 1372 0  L 1372 1030  L 0 1030  Z " fill-rule="nonzero" fill="rgba(242, 242, 242, 1)" stroke="none" transform="matrix(1 0 0 1 -3 -3 )" class="fill" />
    <path d="M 0 1030  L 0 0  L 1372 0  L 1372 1030  L 0 1030  Z " stroke-width="2" stroke-dasharray="0" stroke="rgba(121, 121, 121, 1)" fill="none" transform="matrix(1 0 0 1 -3 -3 )" class="stroke" mask="url(#Clip7)" />
    <path d="M 1371.4673708665023 0.3998600637774769  L 0.5326291334977654 1029.6001399362226  M 0.5326291334977654 0.3998600637774769  L 1371.4673708665023 1029.6001399362226  " stroke-width="1" stroke-dasharray="0" stroke="rgba(121, 121, 121, 1)" fill="none" transform="matrix(1 0 0 1 -3 -3 )" class="stroke" mask="url(#Clip8)" />
  </g>
</svg>