<?xml version="1.0" encoding="utf-8"?>
<svg version="1.1" xmlns:xlink="http://www.w3.org/1999/xlink" width="1370px" height="1026px" xmlns="http://www.w3.org/2000/svg">
  <defs>
    <pattern id="BGPattern" patternUnits="userSpaceOnUse" alignment="0 0" imageRepeat="None" />
    <mask fill="white" id="Clip1">
      <path d="M 0 1026  L 0 0  L 1370 0  L 1370 1026  L 0 1026  Z " fill-rule="evenodd" />
    </mask>
    <mask fill="white" id="Clip2">
      <path d="M 653 505  L 719 505  L 719 524  L 653 524  Z M 0 0  L 1370 0  L 1370 1026  L 0 1026  Z " fill-rule="evenodd" />
    </mask>
  </defs>
  <g transform="matrix(1 0 0 1 2 1 )">
    <path d="M 0 1026  L 0 0  L 1370 0  L 1370 1026  L 0 1026  Z " fill-rule="nonzero" fill="rgba(242, 242, 242, 1)" stroke="none" transform="matrix(1 0 0 1 -2 -1 )" class="fill" />
    <path d="M 0 1026  L 0 0  L 1370 0  L 1370 1026  L 0 1026  Z " stroke-width="2" stroke-dasharray="0" stroke="rgba(121, 121, 121, 1)" fill="none" transform="matrix(1 0 0 1 -2 -1 )" class="stroke" mask="url(#Clip1)" />
    <path d="M 1369.4656062215547 0.40021023115679605  L 0.5343937784452345 1025.5997897688433  M 0.5343937784452345 0.40021023115679605  L 1369.4656062215547 1025.5997897688433  " stroke-width="1" stroke-dasharray="0" stroke="rgba(121, 121, 121, 1)" fill="none" transform="matrix(1 0 0 1 -2 -1 )" class="stroke" mask="url(#Clip2)" />
  </g>
</svg>