<?xml version="1.0" encoding="utf-8"?>
<svg version="1.1" xmlns:xlink="http://www.w3.org/1999/xlink" width="1372px" height="1028px" xmlns="http://www.w3.org/2000/svg">
  <defs>
    <pattern id="BGPattern" patternUnits="userSpaceOnUse" alignment="0 0" imageRepeat="None" />
    <mask fill="white" id="Clip3">
      <path d="M 0 1028  L 0 0  L 1372 0  L 1372 1028  L 0 1028  Z " fill-rule="evenodd" />
    </mask>
    <mask fill="white" id="Clip4">
      <path d="M 654 505  L 720 505  L 720 524  L 654 524  Z M 0 0  L 1372 0  L 1372 1028  L 0 1028  Z " fill-rule="evenodd" />
    </mask>
  </defs>
  <g transform="matrix(1 0 0 1 2 1 )">
    <path d="M 0 1028  L 0 0  L 1372 0  L 1372 1028  L 0 1028  Z " fill-rule="nonzero" fill="rgba(242, 242, 242, 1)" stroke="none" transform="matrix(1 0 0 1 -2 -1 )" class="fill" />
    <path d="M 0 1028  L 0 0  L 1372 0  L 1372 1028  L 0 1028  Z " stroke-width="2" stroke-dasharray="0" stroke="rgba(121, 121, 121, 1)" fill="none" transform="matrix(1 0 0 1 -2 -1 )" class="stroke" mask="url(#Clip3)" />
    <path d="M 1371.4659610822719 0.4001399471023059  L 0.5340389177279803 1027.5998600528976  M 0.5340389177279803 0.4001399471023059  L 1371.4659610822719 1027.5998600528976  " stroke-width="1" stroke-dasharray="0" stroke="rgba(121, 121, 121, 1)" fill="none" transform="matrix(1 0 0 1 -2 -1 )" class="stroke" mask="url(#Clip4)" />
  </g>
</svg>